HIERARCHY
ROOT Hips
{
	OFFSET -3.958830 18.904000 13.208200
	CHANNELS 6 Xposition Yposition Zposition Zrotation Yrotation Xrotation 
	JOINT LHipJoint
	{
		OFFSET 0.000000 0.000000 0.000000
		CHANNELS 3 Zrotation Yrotation Xrotation
		JOINT LeftUpLeg
		{
			OFFSET 1.800000 -1.400000 0.085000
			CHANNELS 3 Zrotation Yrotation Xrotation
			JOINT LeftLeg
			{
				OFFSET 2.215000 -6.000000 0.000000
				CHANNELS 3 Zrotation Yrotation Xrotation
				JOINT LeftFoot
				{
					OFFSET 2.500000 -6.900000 0.000000
					CHANNELS 3 Zrotation Yrotation Xrotation
					JOINT LeftToeBase
					{
						OFFSET 0.200000 -0.500000 1.950000
						CHANNELS 3 Zrotation Yrotation Xrotation
						End Site
						{
							OFFSET 0.000000 0.000000 0.000000
						}
					}
				}
			}
		}
	}
	JOINT RHipJoint
	{
		OFFSET 0.000000 0.000000 0.000000
		CHANNELS 3 Zrotation Yrotation Xrotation
		JOINT RightUpLeg
		{
			OFFSET -1.800000 -1.400000 0.085000
			CHANNELS 3 Zrotation Yrotation Xrotation
			JOINT RightLeg
			{
				OFFSET -2.215000 -6.000000 0.000000
				CHANNELS 3 Zrotation Yrotation Xrotation
				JOINT RightFoot
				{
					OFFSET -2.500000 -6.900000 0.000000
					CHANNELS 3 Zrotation Yrotation Xrotation
					JOINT RightToeBase
					{
						OFFSET -0.200000 -0.500000 1.950000
						CHANNELS 3 Zrotation Yrotation Xrotation
						End Site
						{
							OFFSET 0.000000 0.000000 0.000000
						}
					}
				}
			}
		}
	}
	JOINT LowerBack
	{
		OFFSET 0.000000 0.000000 0.000000
		CHANNELS 3 Zrotation Yrotation Xrotation
		JOINT Spine
		{
			OFFSET -0.087000 1.940000 -0.288900
			CHANNELS 3 Zrotation Yrotation Xrotation
			JOINT Spine1
			{
				OFFSET 0.000000 1.950000 0.060000
				CHANNELS 3 Zrotation Yrotation Xrotation
				JOINT Neck
				{
					OFFSET 0.000000 0.000000 0.000000
					CHANNELS 3 Zrotation Yrotation Xrotation
					JOINT Neck1
					{
						OFFSET 0.000000 1.600000 0.340000
						CHANNELS 3 Zrotation Yrotation Xrotation
						JOINT Head
						{
							OFFSET 0.000000 1.667000 -0.240000
							CHANNELS 3 Zrotation Yrotation Xrotation
							End Site
							{
								OFFSET 0.000000 0.000000 0.000000
							}
						}
					}
				}
				JOINT LeftShoulder
				{
					OFFSET 0.000000 0.000000 0.000000
					CHANNELS 3 Zrotation Yrotation Xrotation
					JOINT LeftArm
					{
						OFFSET 2.700000 1.550000 -0.730000
						CHANNELS 3 Zrotation Yrotation Xrotation
						JOINT LeftForeArm
						{
							OFFSET 5.450000 0.000000 0.000000
							CHANNELS 3 Zrotation Yrotation Xrotation
							JOINT LeftHand
							{
								OFFSET 3.450000 0.000000 0.000000
								CHANNELS 3 Zrotation Yrotation Xrotation
								JOINT LeftHandIndex1
								{
									OFFSET 0.750000 0.000000 0.000000
									CHANNELS 3 Zrotation Yrotation Xrotation
									End Site
									{
										OFFSET 0.000000 0.000000 0.000000
									}
								}
							}
						}
					}
				}
				JOINT RightShoulder
				{
					OFFSET 0.000000 0.000000 0.000000
					CHANNELS 3 Zrotation Yrotation Xrotation
					JOINT RightArm
					{
						OFFSET -2.700000 1.550000 -0.730000
						CHANNELS 3 Zrotation Yrotation Xrotation
						JOINT RightForeArm
						{
							OFFSET -5.450000 0.000000 0.000000
							CHANNELS 3 Zrotation Yrotation Xrotation
							JOINT RightHand
							{
								OFFSET -3.450000 0.000000 0.000000
								CHANNELS 3 Zrotation Yrotation Xrotation
								JOINT RightHandIndex1
								{
									OFFSET -0.750000 0.000000 0.000000
									CHANNELS 3 Zrotation Yrotation Xrotation
									End Site
									{
										OFFSET 0.000000 0.000000 0.000000
									}
								}
							}
						}
					}
				}
			}
		}
	}
}
MOTION
Frames: 7
Frame Time: 0.016667
-7.070790 16.330170 -7.878830 -5.603340 44.125597 -10.446675 -15.226486 11.957460 1.599140 5.344033 -0.518876 -19.057431 5.934949 6.327228 36.913568 0.346171 5.746160 2.524648 -0.176530 -0.307200 -0.166210 18.269007 -10.627650 5.070072 -36.495993 4.909470 -17.396338 32.012168 -8.403721 7.499303 -0.464144 -6.612924 1.732825 -0.209940 0.149600 0.107160 -5.531163 2.320553 -8.806070 16.687677 1.095082 15.327623 -10.679985 5.498444 9.394266 4.220440 2.046858 -17.181262 4.670243 -19.697999 32.151763 -2.156230 -20.930560 -1.884410 -8.912614 -14.608135 11.096363 -30.243255 19.616236 -5.269539 3.300317 4.723966 -0.059977 -4.000784 2.825139 0.036840 -0.010480 -0.067520 0.014630 -1.173071 21.334264 8.720991 2.214423 23.147334 1.902876 -3.696318 6.738115 0.237157 2.880652 -1.109211 -0.011990 0.026840 0.132910 0.129610 
-7.233990 16.237320 -7.779480 -4.245684 39.553808 -8.974742 -15.137202 11.881245 1.702689 7.380657 -0.752661 -20.213607 3.917063 7.728978 39.209870 0.438224 6.348415 2.288678 -0.165400 -0.302720 -0.158180 18.385476 -10.438525 5.119159 -37.526158 4.506197 -16.713148 33.742319 -8.893348 7.264058 -0.545466 -6.819014 1.663023 -0.220540 0.130410 0.118110 -5.300840 1.984234 -8.792900 15.324103 1.266572 15.032183 -9.847357 5.284569 7.264816 3.330165 1.813963 -16.222867 3.617024 -18.873906 32.009790 -1.277940 -20.164720 -2.649020 -7.174912 -10.550742 9.056595 -28.829088 19.698742 -5.936790 2.038991 0.773304 -0.343639 -3.959374 2.790233 0.068250 -0.027170 -0.044620 0.014920 -1.287769 16.504967 10.194126 4.674178 16.287506 1.241908 -2.865739 12.118126 0.505622 2.725649 -1.187637 -0.002890 0.011230 0.128870 0.119420 
-7.401330 16.195010 -7.674840 -2.957669 34.974182 -7.698348 -15.042574 11.848038 1.789145 9.442158 -0.806952 -19.783988 0.749615 9.284201 39.229864 0.508370 6.685846 2.154066 -0.155850 -0.296310 -0.142360 18.492929 -10.279477 5.173916 -38.699072 4.070085 -15.941015 35.718382 -9.608809 7.463476 -0.641463 -7.056315 1.586598 -0.237660 0.101730 0.123910 -5.195218 1.631020 -8.848880 14.834586 1.155408 14.320468 -10.647057 5.231855 5.458552 3.037008 1.334925 -15.757064 2.075851 -17.089263 34.074919 -1.070210 -18.736770 -2.584870 -7.357583 -8.292932 8.072125 -26.376050 20.257624 -5.752928 3.128693 -0.542980 -0.279280 -3.929473 2.786214 0.100650 -0.049320 -0.011180 0.012690 -0.576354 13.974209 10.897965 6.662326 12.302758 1.893690 0.703553 3.413131 0.414775 2.881844 -1.058882 0.011250 -0.003160 0.119670 0.109440 
-7.595370 16.160500 -7.550340 -2.162384 28.600202 -6.508355 -14.964197 11.916919 1.871288 11.903289 -0.494654 -18.881800 -1.877431 10.642490 38.712329 0.503482 7.013934 2.013441 -0.104150 -0.238420 -0.083100 18.558766 -10.244964 5.077874 -38.299114 3.611670 -16.581885 36.474710 -10.598975 9.100971 -0.694669 -7.136043 1.553417 -0.192720 0.075360 0.133390 -5.015424 1.351764 -8.768793 14.119063 1.311142 13.695464 -10.821672 4.981294 3.446560 3.211388 1.284738 -14.336501 1.568427 -15.449564 33.864909 -1.752850 -16.058650 -4.231450 -8.160895 -4.881413 6.700299 -23.186935 21.498929 -5.335316 3.300331 -1.594150 -0.349633 -3.927289 2.757601 0.140460 -0.050670 0.020400 0.006130 -0.133260 9.785000 10.347137 8.717694 7.162636 1.132491 1.573211 3.896304 0.321471 2.827384 -1.091646 0.001800 0.010070 0.106810 0.073450 
-7.810970 16.172860 -7.401020 -0.658568 23.919145 -4.932864 -14.933292 12.075331 1.911454 12.371100 -0.575376 -17.634023 -3.170502 10.843441 37.276792 0.413678 6.979137 2.027997 -0.064120 -0.210950 -0.028920 18.573828 -10.170456 4.998842 -37.913348 3.012220 -16.608969 36.671728 -11.135026 9.766917 -0.716436 -7.163617 1.533032 -0.144410 0.068140 0.129380 -4.851422 0.828319 -8.660791 13.075463 1.256489 13.027190 -11.779242 4.643453 1.659906 3.261004 0.070124 -12.814426 -1.192170 -15.145468 32.462885 -3.264790 -15.312960 -6.204290 -11.858314 -2.724084 5.480101 -16.078157 22.629412 -3.444563 4.461526 -2.732969 -0.327251 -3.884945 2.785797 0.173390 -0.051870 0.022560 -0.000920 3.589322 7.462119 9.541994 7.032247 0.804782 -0.048243 0.603642 4.273429 0.156037 2.799106 -1.104127 -0.032320 0.047820 0.107390 0.040290 
-8.049360 16.177470 -7.253360 0.337457 20.185498 -4.422750 -14.922031 12.319587 1.871664 12.266932 -0.628892 -16.273668 -2.685785 10.246224 36.198528 0.348178 6.787832 2.121690 -0.065160 -0.212680 -0.046660 18.549278 -10.243061 4.784754 -36.223011 2.384140 -15.860139 35.779935 -11.568531 10.711836 -0.697151 -7.126775 1.568061 -0.123940 0.119290 0.121600 -4.714389 0.372183 -8.448476 11.719591 1.160462 11.943013 -11.829136 4.279697 2.111657 3.019661 -0.909334 -12.230560 -3.144805 -13.768193 31.562873 -2.808560 -14.486130 -6.113460 -13.561229 -2.585453 5.073104 -11.403369 21.867086 -2.091730 4.072825 -1.304211 -0.402431 -3.901046 2.795415 0.166160 -0.022810 -0.007720 0.016800 6.156254 7.004212 9.283709 4.946348 -3.610981 -0.399918 0.873344 1.353775 -0.107605 2.827740 -1.088546 -0.061930 0.083670 0.118250 0.043360 
-8.304210 16.181390 -7.140850 0.759997 15.817217 -4.957572 -14.927987 12.615582 1.919879 12.997733 -0.517179 -14.644901 -2.879451 10.197221 35.525253 0.326925 6.735424 2.124293 -0.003770 -0.152430 0.024290 18.470400 -10.309317 4.622356 -34.051269 2.134520 -15.366720 35.597864 -12.089792 12.114831 -0.760098 -7.032011 1.605652 -0.101410 0.056040 0.106240 -4.488296 -0.110909 -8.432722 10.443301 0.809735 12.996259 -11.606771 3.776465 0.953871 3.014568 -0.952631 -12.241997 -3.746775 -11.810109 33.026074 -1.275740 -12.767520 -8.894320 -14.876621 -2.905082 4.947123 -7.415618 21.737863 -1.069054 3.982414 0.671723 -0.465336 -3.836811 2.775730 0.248030 -0.086790 0.056690 0.014620 7.641092 6.889554 9.167729 3.262228 -6.875768 -0.593665 1.701552 0.448328 -0.189406 2.837030 -1.044437 -0.063940 0.097850 0.083550 0.011170 
